<svg id="Layer_2" data-name="Layer 2" xmlns="http://www.w3.org/2000/svg" viewBox="0 0 491.43 382.31"><defs><style>.cls-1{fill:#fff;}.cls-2{fill:none;stroke:#0759b1;stroke-miterlimit:10;stroke-width:8px;}.cls-3{fill:#0759b1;}</style></defs><rect class="cls-1" width="491.43" height="382.31" rx="17.68"/><rect class="cls-2" x="25.4" y="23.28" width="440.64" height="335.74" rx="15.69"/><path class="cls-3" d="M322.37,79.26A12.13,12.13,0,0,1,310.23,91.4l-1-.05L55.81,81.23l253-14,1.39-.08A12.14,12.14,0,0,1,322.37,79.26Z" transform="translate(-4.26 -8.47)"/><path class="cls-3" d="M55.81,134.56A12.13,12.13,0,0,0,68,146.7l1,0,253.41-10.12-253-14L68,122.43A12.14,12.14,0,0,0,55.81,134.56Z" transform="translate(-4.26 -8.47)"/><path class="cls-3" d="M432.91,335.38,77.49,344.13l-.74,0a14.33,14.33,0,0,1,0-28.66l1.64.1Z" transform="translate(-4.26 -8.47)"/><polygon class="cls-2" points="445.85 89.26 445.85 107.64 406.93 107.64 406.93 155.02 388.55 155.02 388.55 107.64 349.63 107.64 349.63 89.26 388.55 89.26 388.55 41.86 406.93 41.86 406.93 89.26 445.85 89.26"/><line class="cls-2" x1="373.77" y1="41.86" x2="421.49" y2="41.86"/><line class="cls-2" x1="373.77" y1="65.51" x2="388.55" y2="65.51"/><line class="cls-2" x1="406.7" y1="65.51" x2="421.49" y2="65.51"/><line class="cls-2" x1="373.88" y1="155.02" x2="421.6" y2="155.02"/><line class="cls-2" x1="373.88" y1="131.37" x2="388.67" y2="131.37"/><line class="cls-2" x1="406.82" y1="131.37" x2="421.6" y2="131.37"/><line class="cls-2" x1="445.85" y1="122.3" x2="445.85" y2="74.58"/><line class="cls-2" x1="349.63" y1="122.3" x2="349.63" y2="74.58"/><path class="cls-3" d="M126,300.53v-2.8q5.89-1.11,8.32-2.75a5.24,5.24,0,0,0,2.43-4.6,23.77,23.77,0,0,0-1.84-7.35l-5.54-14.71H95.18L90.45,281a23.92,23.92,0,0,0-1.82,7.84q0,6.31,9.61,8.87v2.8H67.31v-2.8a16.19,16.19,0,0,0,9.75-5.83Q81.22,287,85.3,276l27.54-73.7h13.08L155,279q4,10.23,7.85,14.27a14.88,14.88,0,0,0,10,4.51v2.8ZM98.25,261.44h28.52L112.19,222.6Z" transform="translate(-4.26 -8.47)"/><path class="cls-3" d="M175.46,300.53v-2.8q12.15-.94,12.15-12.23V220.68c0-4.43-.84-7.49-2.52-9.2s-4.89-3-9.63-3.91v-2.8H221q17.91,0,27.54,6.31a20.07,20.07,0,0,1,9.63,17.75,21.17,21.17,0,0,1-5,14.15q-5,5.91-14.36,8.63v.32q3.36.81,7.27,5.56t11.37,18.67q7.29,13.5,10.6,17.1a14.92,14.92,0,0,0,9.08,4.47v2.8H249.52q-5.43-6.42-13.93-23.27-5.85-11.58-8.69-15.42a17.65,17.65,0,0,0-5.92-5.39q-3.07-1.56-12.27-1.56v29.42q0,6.31,2.8,9.39t9.51,4v2.8Zm39.81-90.32h-6.56v39.24c1.65.11,3.2.16,4.64.16q11.43,0,16.66-4.91t5.24-15.55Q235.25,210.21,215.27,210.21Z" transform="translate(-4.26 -8.47)"/><path class="cls-3" d="M343.4,237.78h3.12v29.66H343.4q-1.68-12.22-13.27-12.23H313.26v28.14q0,6.47,2.95,9.11t10.13,2.64h5.59q14,0,20.1-17.83h2.8l-1.76,23.26h-72.9v-2.8q7.23-1.51,9.61-4.35t2.38-11V220.84c0-4.48-.82-7.58-2.46-9.32s-4.82-3.05-9.53-4v-2.8H352V226h-2.8q-2.4-9.34-5.95-12.59t-11.39-3.23H313.26v39.56h16.87q5.76,0,8.79-2.73T343.4,237.78Z" transform="translate(-4.26 -8.47)"/><path class="cls-3" d="M417.17,202.29v25.26h-2.79a30.82,30.82,0,0,0-9.62-14.11q-6.81-5.72-14.08-5.71a17,17,0,0,0-11.13,3.75,11.5,11.5,0,0,0-4.58,9.2,12.35,12.35,0,0,0,1.2,5.23,16.43,16.43,0,0,0,3.47,4.84q2.28,2.24,14.69,10,12.65,7.74,16.31,10.77a40.28,40.28,0,0,1,7,7.76,27.15,27.15,0,0,1,5.11,15.93q0,12.79-9,20.32T392,303a66.6,66.6,0,0,1-16.38-2.48,34.34,34.34,0,0,0-7-1.28,5.07,5.07,0,0,0-4.87,3.12h-2.8V273.51h2.8q2.16,11.21,8.95,17.63a23.38,23.38,0,0,0,16.71,6.43q7.67,0,12.67-3.83a11.8,11.8,0,0,0,5-9.75,14.86,14.86,0,0,0-3.2-9.08q-3.19-4.28-17.12-12.56-12.81-7.64-16.95-11.8a28.13,28.13,0,0,1-8.37-20.25q0-12.33,8.42-20.17t21.67-7.84a44.23,44.23,0,0,1,9.82,1.36,43.91,43.91,0,0,0,8.14,1.28q2.31,0,4.95-2.64Z" transform="translate(-4.26 -8.47)"/><path class="cls-3" d="M110.4,218.2c0-4.42-.84-7.49-2.52-9.19s-4.89-3-9.63-3.92v-2.8H121" transform="translate(-4.26 -8.47)"/></svg>